<svg xmlns="http://www.w3.org/2000/svg" width="1024" height="1024" viewBox="0 0 35 35"> <path d="M315.8 712.6c8 3.4 16.4 5.4 26 5.6 34-.8 56.8-20.6 74.8-64.2.4-1.4.8-2.2 1.4-3.4 1.8-2.8 4.4-4.6 7.6-4.6 3 0 5.6 1.8 7.6 4.6.2.4.4.602.4 1 .4.802.8 1.2 1 1.802 18.4 45 41.6 65.2 77.2 65.2h.2c35.2 0 58.4-20 76.8-64.6.4-1.4.8-2.2 1.4-3.4 1.8-2.8 4.4-4.6 7.6-4.6 3 0 5.8 1.8 7.6 4.6.2.4.4.6.6 1 .2.8.6 1.2.8 1.8 18.2 44.4 41 64.2 75.4 64.8 9.8-.2 18.4-2.4 26.4-5.8L810.8 452c10.2-31.6-3.4-73.4-30.2-93l-30.8-22.4-49.6-130H586.4V132h-149v74.4H323.6L274 336.6l-30.6 22.2c-27 19.6-40.4 61.4-30.2 93l102.6 260.8zm286.8-457.4h78.8v33.4h-78.8v-33.4zm-130 0h78.8v33.4h-78.8v-33.4zm-130 0h78.8v33.4h-78.8v-33.4zm-20 168.8h379c14 0 21.8 11 17.4 24.2L684.4 549c-4.6 13.2-19.8 24.2-33.8 24.2H373.8c-14 0-29.4-11-33.8-24.2l-34.6-100.8c-4.6-13.4 3.2-24.2 17.2-24.2z"/> <path d="M947 703.4c-.2-.8-.4-1.2-.6-1.8-.2-.4-.4-.4-.6-1-1.8-2.8-4.4-4.6-7.6-4.6s-5.8 2-7.602 4.6c-.6 1.2-1.2 2-1.4 3.4-18.2 44.6-41.4 64.6-76.8 64.6h-.2c-35.4 0-58.6-20-77-65.2-.4-.8-.6-1.2-.8-1.8-.4-.4-.6-.4-.6-1h-.2c-1.6-2.8-4.2-4.6-7.4-4.6-3 0-5.6 2-7.4 4.6-.6 1.2-1.2 2-1.398 3.4-18.2 43.8-41 63.8-75.2 64.4-34.4-.602-57.2-20.602-75.4-65-.2-.802-.6-1.2-.8-1.802-.2-.4-.4-.4-.6-1-1.8-2.8-4.6-4.6-7.6-4.6-3.2 0-5.8 2-7.6 4.6-.602 1.2-1 2-1.4 3.4-18.4 44.6-41.6 64.6-76.8 64.6h-.2c-35.6 0-58.8-20-77.2-65.2-.2-.8-.6-1.2-1-1.8 0-.4-.2-.4-.4-1-2-2.8-4.6-4.6-7.6-4.6-3.2 0-5.8 2-7.6 4.6-.6 1.2-1 2-1.4 3.4-18 43.6-40.8 63.4-74.8 64.2-34.2-.8-57-20.8-75-64.8-.2-.8-.4-1.2-.8-1.8-.2-.4-.4-.4-.4-1h-.2c-1.6-2.8-4.4-4.6-7.4-4.6-3.2 0-6 2-7.6 4.6-.8 1.2-1.2 2-1.4 3.4-18.4 44.6-41.8 64.6-77 64.6-35.4 0-58.6-20-77-65.2-.2-.8-.6-1.2-.8-1.8-.2-.4-.4-.4-.4-1h-.4c-1.6-2.8-4.2-4.6-7.4-4.6-3 0-5.8 2-7.6 4.6-.6 1.2-1 2-1.4 3.4-18.4 44.6-41.8 64.6-77 64.6h.8v178.2h1021.8V768.6h1.4c-35.6 0-58.6-20-77-65.2z"/> </svg>

