<svg xmlns="http://www.w3.org/2000/svg" width="64" height="64"> <path fill="#231F20" d="M33.884 10.51c2.897.225 5.43-1.943 5.655-4.822.22-2.915-1.95-5.43-4.84-5.672-2.88-.226-5.42 1.942-5.66 4.838-.23 2.896 1.94 5.428 4.84 5.656zm-4.456 2.68c1.04-.73 2.307-1.215 3.676-1.112 1.822.156 3.312 1.267 4.197 2.637l5.31 10.527 7.23 4.978c.63.468.99 1.25.94 2.064-.1 1.318-1.25 2.29-2.56 2.186-.38-.034-.69-.173-1.072-.348l-7.892-5.446c-.24-.19-.45-.433-.59-.693l-1.993-3.937-2.38 10.494 9.33 11.012c.19.348.347.73.417 1.128L46.566 60c-.02.294.03.468.014.73-.15 1.958-1.87 3.416-3.83 3.26-1.61-.12-2.82-1.336-3.21-2.81l-2.39-12.47-7.56-8.31-1.77 8.083c-.05.38-.552 1.18-.71 1.51l-7.263 12.26c-.73 1.13-1.944 1.84-3.33 1.735-1.96-.155-3.435-1.872-3.28-3.832.035-.557.278-1.128.486-1.527l6.764-11.36 6.34-24.78 2.61-9.3zm-6.062 16.515c-.405 1.553-1.99 2.483-3.542 2.08l-2.31-.6c-1.553-.404-2.484-1.99-2.08-3.544l4.082-15.69c.404-1.55 1.99-2.48 3.543-2.08l2.31.6c1.55.41 2.48 1.99 2.08 3.54l-4.09 15.7z"/> </svg>

