<?xml version="1.0" encoding="UTF-8"?>
<svg
   xmlns="http://www.w3.org/2000/svg"
   xmlns:xlink="http://www.w3.org/1999/xlink"
   xmlns:sb="http://simplector.lyoshka.net/base/2.0"
   xmlns:sp="http://simplector.lyoshka.net/pro/2.0"
   width="40.0px"
   height="50.0px"
   viewBox="0 0 40.0 50.0"
   sb:fontSize="Custom"
   sb:pageOrientation="Portrait"
   version="1.1"
   sb:version="2.0.23"
   >
   <desc>Created in Simplector</desc>
   <path
      id="0"
      transform="matrix(0.11441206,0.0,0.0,0.11441206,-6.951195,-6.923395)"
      fill="rgb(0,0,0)"
      fill-opacity="0.0"
      stroke-width="30.0px"
      stroke-linecap="round"
      stroke-linejoin="bevel"
      stroke-miterlimit="2.0"
      stroke="rgb(0,0,0)"
      stroke-opacity="1.0"
      d="
      M 382.0 96.214294 Q 290.8062 149.83894 262.0823 374.5928 
      "

      sb:layerName="PathFigure-0"
      sb:layerVisible="true"
      sb:layerLocked="false"
      sb:pathType="path"
      >
   </path>
   <path
      id="1"
      transform="matrix(0.11441206,0.0,0.0,0.11441206,-13.627417,-6.653924)"
      fill="rgb(0,0,0)"
      fill-opacity="0.0"
      stroke-width="30.0px"
      stroke-linecap="round"
      stroke-linejoin="bevel"
      stroke-miterlimit="2.0"
      stroke="rgb(0,0,0)"
      stroke-opacity="1.0"
      d="
      M 339.5049 83.348 Q 290.8062 149.83894 274.12778 368.5774 
      "

      sb:layerName="copy of PathFigure-0"
      sb:layerVisible="true"
      sb:layerLocked="false"
      sb:pathType="path"
      >
   </path>
   <path
      id="2"
      transform="matrix(0.11441206,0.0,0.0,0.11441206,-18.77358,-5.2326055)"
      fill="rgb(0,0,0)"
      fill-opacity="0.0"
      stroke-width="30.0px"
      stroke-linecap="round"
      stroke-linejoin="bevel"
      stroke-miterlimit="2.0"
      stroke="rgb(0,0,0)"
      stroke-opacity="1.0"
      d="
      M 211.73834 66.37461 Q 290.8062 149.83894 276.90253 354.90863 
      "

      sb:layerName="copy of PathFigure-0"
      sb:layerVisible="true"
      sb:layerLocked="false"
      sb:pathType="path"
      >
   </path>
   <path
      id="4"
      transform="matrix(0.11441206,0.0,0.0,0.11441206,-9.659163,-8.647621)"
      fill="rgb(0,0,0)"
      fill-opacity="0.0"
      stroke-width="30.0px"
      stroke-linecap="round"
      stroke-linejoin="bevel"
      stroke-miterlimit="2.0"
      stroke="rgb(0,0,0)"
      stroke-opacity="1.0"
      d="
      M 136.7544 359.7582 C 136.7544 359.7582 131.12408 371.85443 122.678604 389.99878 
      C 114.23313 408.14313 115.02032 428.17303 124.64657 440.07364 C 134.27283 451.97424 155.6617 466.91632 178.11874 477.4289 
      C 200.57579 487.94147 238.31082 491.41595 272.4563 486.11517 C 306.60178 480.8144 339.82504 469.4953 355.51447 457.81744 
      C 371.2039 446.1396 382.07446 429.90393 382.69098 417.22827 C 383.3075 404.5526 379.40652 391.18137 372.93854 383.80014 
      C 366.47055 376.4189 351.59512 370.30734 351.59512 370.30734 
      "

      sb:layerName="BLineFigure-4"
      sb:layerVisible="true"
      sb:layerLocked="false"
      sb:pathType="bline"
      >
   </path>
   <ellipse
      id="5"
      transform="matrix(1.0,0.0,0.0,1.0,26.725376,3.847618)"
      fill="rgb(0,0,0)"
      fill-opacity="0.0"
      stroke-width="2.0px"
      stroke-linecap="round"
      stroke-linejoin="bevel"
      stroke-miterlimit="2.0"
      stroke="rgb(0,0,0)"
      stroke-opacity="1.0"
      cx="5.6832447"
      cy="22.292433"
      rx="1.9358997"
      ry="1.9358997"

      sb:layerName="OvalFigure-5"
      sb:layerVisible="true"
      sb:layerLocked="false"
      >
   </ellipse>
   <ellipse
      id="7"
      transform="matrix(1.0,0.0,0.0,1.0,-2.5332603,-2.4032726)"
      fill="rgb(0,0,0)"
      fill-opacity="0.0"
      stroke-width="2.0px"
      stroke-linecap="round"
      stroke-linejoin="bevel"
      stroke-miterlimit="2.0"
      stroke="rgb(0,0,0)"
      stroke-opacity="1.0"
      cx="5.6832447"
      cy="22.292433"
      rx="1.9358997"
      ry="1.9358997"

      sb:layerName="copy of OvalFigure-5"
      sb:layerVisible="true"
      sb:layerLocked="false"
      >
   </ellipse>
   <ellipse
      id="8"
      transform="matrix(1.0,0.0,0.0,1.0,1.7934723,4.37866)"
      fill="rgb(0,0,0)"
      fill-opacity="0.0"
      stroke-width="2.0px"
      stroke-linecap="round"
      stroke-linejoin="bevel"
      stroke-miterlimit="2.0"
      stroke="rgb(0,0,0)"
      stroke-opacity="1.0"
      cx="5.6832447"
      cy="22.292433"
      rx="1.9358997"
      ry="1.9358997"

      sb:layerName="copy of OvalFigure-5"
      sb:layerVisible="true"
      sb:layerLocked="false"
      >
   </ellipse>
   <path
      id="11"
      fill="rgb(0,0,0)"
      fill-opacity="0.0"
      stroke-width="3.0"
      stroke-linecap="round"
      stroke-linejoin="bevel"
      stroke-miterlimit="2.0"
      stroke="rgb(0,0,0)"
      stroke-opacity="1.0"
      d="
      M 10.982071 39.369827 C 10.982071 39.369827 11.468811 40.074554 12.198919 41.13165 
      C 12.929028 42.188744 14.6694 43.00738 16.549852 43.178246 C 18.430304 43.34911 26.003296 40.82175 26.003296 40.82175 
      
      "

      sb:layerName="BLineFigure-11"
      sb:layerVisible="true"
      sb:layerLocked="false"
      sb:pathType="bline"
      >
   </path>
</svg>
